PathFileType	4	(X/Y/Z)	C:\Users\WrightLab\Desktop\Jo\P3_26.trc
DataRate	CameraRate	NumFrames	NumMarkers	Units	OrigDataRate	OrigDataStartFrame	OrigNumFrames
100.00	100.00	       16	19	mm	100.00	240	       638
Frame#	Time	Headset_Front			Headset_Back			Headset_Left			Headset_Right			Left_Shoulder			Right_Shoulder			Sternum			C7			Left Elbow			Right Elbow			Left Wrist			Right Wrist			Left ASIS			Right ASIS			S2			Left Knee			Right Knee			Left Ankle			Right Ankle			
		X1	Y1	Z1	X2	Y2	Z2	X3	Y3	Z3	X4	Y4	Z4	X5	Y5	Z5	X6	Y6	Z6	X7	Y7	Z7	X8	Y8	Z8	X9	Y9	Z9	X10	Y10	Z10	X11	Y11	Z11	X12	Y12	Z12	X13	Y13	Z13	X14	Y14	Z14	X15	Y15	Z15	X16	Y16	Z16	X17	Y17	Z17	X18	Y18	Z18	X19	Y19	Z19	

240	2.390	-510.17889	1507.83057	37.25599				-493.59506	1547.16125	-169.41733	-650.08862	1545.74719	-4.07805	-463.90320	1321.56470	-248.54305	-785.02185	1335.72668	-78.34141	-560.41382	1214.49658	-46.38044	-652.31946	1381.87158	-205.75746	-417.30579	983.40045	-272.81525	-882.14911	998.09882	-37.27694	-393.85602	805.41962	-164.49742	-835.31866	825.23499	102.13879	-489.80179	851.70892	-107.20936	-716.16943	868.00275	-3.70693	-683.69183	928.67883	-253.53140	-459.55768	457.30667	-2.53343	-736.08118	439.38162	-5.60258	-584.86505	227.81088	-212.77951	-768.61554	103.46245	-44.26202	
241	2.400							-491.05188	1548.05676	-162.35976	-646.82648	1546.10535	4.08023	-462.47733	1322.35376	-242.70071	-781.46729	1336.47583	-69.13391	-557.08820	1214.56555	-40.69020	-649.98877	1382.50708	-197.30771	-416.80838	984.70734	-268.50458	-879.53400	999.93872	-26.12295	-391.04758	806.58795	-160.52502	-830.76013	827.70349	114.41781	-488.68784	852.66779	-102.28032	-712.46973	868.33380	8.75178	-682.72699	929.34412	-245.72691	-451.90060	462.24423	8.73804	-734.33600	438.63843	-3.16843	-579.56647	224.74776	-192.25723	-768.47833	103.53486	-44.14419	
242	2.410							-488.34433	1548.96021	-154.63791	-643.78253	1546.98621	11.71044	-461.04535	1322.86682	-236.76630	-777.76831	1337.32495	-59.03482	-553.09906	1215.48438	-33.98323	-648.55280	1384.05627	-190.05179	-416.30316	985.49329	-263.87122	-876.42059	1000.76318	-14.62860	-388.77951	807.16125	-155.98506	-827.10889	829.12439	125.03780	-486.07898	853.21674	-96.64270	-709.83936	869.18646	16.26203	-682.21228	930.89777	-238.87654	-444.42133	466.06039	19.44931	-733.32727	438.70001	-0.21627	-573.23047	220.27702	-169.85776	-767.87067	104.04491	-43.03127	
243	2.420				-634.90649	1597.85730	-194.64735	-485.07993	1549.48779	-146.38979	-639.90527	1543.74939	18.72633	-459.19540	1323.70081	-230.33240	-774.25854	1338.23218	-49.48217	-548.83978	1215.25745	-27.21944	-646.38104	1384.44739	-182.02968	-415.24521	986.07434	-258.93271	-873.54724	1002.35284	-3.39280	-386.43173	808.08270	-152.22906	-822.74304	830.94934	136.56836	-483.19827	854.39136	-91.66606	-706.96478	866.72192	18.73018	-681.43610	931.62604	-231.36523	-436.77170	470.60669	29.18177	-732.35114	437.36078	2.54971	-566.24359	215.14301	-148.51125	-767.41931	103.32121	-42.69884	
244	2.430				-631.85498	1598.56409	-187.07939	-481.57935	1549.93579	-139.78636	-637.56268	1543.92786	26.50513	-457.59341	1323.45483	-224.07529	-770.05865	1338.56104	-40.39453	-545.16425	1216.28821	-19.71011	-643.36444	1384.32983	-173.04922	-414.17508	986.32361	-254.20294	-870.22095	1003.42822	7.63692	-384.13693	807.91730	-148.44186	-817.64856	832.49738	147.50655	-481.52643	854.31000	-86.40285	-703.32635	868.72766	30.59217	-680.06573	931.22083	-224.09819	-428.56650	474.05911	38.53537	-731.21783	437.39612	5.25378	-558.81049	210.12131	-126.54788	-767.14575	103.67652	-41.50616	
245	2.440				-628.76147	1598.81189	-179.01462	-478.54639	1550.03040	-131.77550	-633.07135	1543.35742	35.51080	-455.09332	1324.19727	-218.35080	-766.53259	1339.51831	-32.26385	-541.41779	1215.85657	-13.26641	-640.61896	1384.89636	-165.14830	-414.05563	986.66833	-249.34726	-867.01080	1003.86505	19.04213	-381.53601	808.87891	-143.64809	-813.45776	833.94458	159.48070	-479.32727	855.09290	-81.83700	-699.42548	866.77325	38.98890	-679.55078	932.16034	-216.57394	-421.15527	478.05499	45.53110	-729.24457	436.79349	7.90828	-549.91052	204.12025	-104.83559	-766.92322	103.50722	-41.34602	
246	2.450				-625.57562	1599.37573	-171.76685	-475.50549	1550.02283	-124.59129	-628.33832	1543.59692	43.61795	-453.11719	1324.51929	-212.60225	-762.24146	1339.55005	-22.96916	-537.76971	1215.85474	-5.99100	-638.06061	1385.32080	-157.05409	-413.17886	986.82172	-244.71422	-863.66766	1005.08862	28.98692	-378.43011	809.29382	-140.34395	-807.85602	835.71490	170.55724	-475.94473	855.70679	-76.21664	-695.49207	868.37775	46.27872	-678.41595	932.54779	-209.03281	-413.07788	481.04825	53.94161	-727.76843	436.50189	10.48929	-540.32361	198.36479	-82.40086	-766.69232	103.60165	-41.13993	
247	2.460				-622.29828	1599.15186	-163.12691	-471.89645	1550.27930	-117.10114	-625.73279	1543.82764	51.03648	-450.62149	1324.70984	-206.01970	-758.13599	1339.56750	-13.99927	-533.58771	1214.96851	0.57237	-634.71997	1385.43213	-148.88283	-411.11292	986.91956	-239.58667	-860.26129	1005.57294	40.40248	-376.21936	808.55585	-135.96793	-802.21417	836.42029	181.47839	-473.10355	856.31073	-70.94629	-690.83600	866.78156	53.96084	-677.65283	933.38745	-201.71269	-404.97351	484.00113	60.88843	-726.76263	435.73886	13.45034	-529.29474	192.11952	-60.48114	-765.86841	103.86567	-40.81782	
248	2.470				-618.96857	1598.96838	-155.35667	-467.95139	1549.71057	-109.25494	-621.47644	1543.20337	58.76703	-448.21048	1324.48938	-200.00922	-753.86243	1339.83960	-5.04914	-529.41864	1214.33081	7.40460	-631.96808	1385.65942	-140.93263	-409.81635	986.81982	-233.99408	-856.89832	1006.06256	51.41256	-370.98672	809.64880	-131.47594	-797.38367	837.32562	191.10080	-470.58356	855.89551	-65.64001	-687.13171	867.32111	61.00899	-676.14709	932.64032	-194.49191	-396.92850	485.96072	66.49408	-725.56024	435.69269	16.57402	-518.18518	186.98557	-39.12063	-765.01154	104.12989	-40.46223	
249	2.480	-473.96680	1507.01355	104.45143	-615.57147	1598.59180	-147.45070	-465.13382	1549.31079	-101.71744	-616.83978	1542.30005	66.59514	-445.58212	1324.29626	-192.17642	-749.39154	1339.39673	3.98902	-525.54736	1213.86353	14.21289	-628.76526	1385.63220	-132.88678	-408.43729	986.22955	-229.23555	-853.37085	1006.50116	61.80028	-368.72159	809.34546	-126.82484	-792.72473	838.62201	202.35620	-466.02521	856.09515	-60.44989	-683.22131	866.63794	68.99187	-675.22058	933.03796	-186.26465	-389.95255	487.81900	72.08846	-723.61694	434.97394	19.79657	-506.26672	181.68770	-17.74742	-764.78967	104.98248	-39.46990	
250	2.490	-469.76895	1506.49341	111.90200	-611.97595	1598.16040	-139.44054	-460.79907	1548.88306	-95.39768	-612.91522	1541.65515	74.04198	-442.03015	1323.51648	-185.88905	-745.12567	1339.03943	12.63086	-521.88000	1213.02563	20.24020	-625.04254	1384.73328	-125.14516	-406.22711	986.27539	-223.13257	-849.94012	1006.59283	72.91789	-366.15384	808.48804	-122.25401	-786.35590	838.54620	212.69753	-463.27438	856.61530	-55.06174	-679.11218	864.11578	69.56020	-673.50500	932.39563	-178.98679	-382.73715	489.12939	76.51377	-722.19818	433.90762	23.27878	-493.40845	176.37666	1.26177	-764.33746	105.08096	-38.13612	
251	2.500	-465.67044	1505.70313	119.48835	-608.34039	1597.23669	-131.68492	-457.23203	1547.99817	-86.03447	-608.01398	1540.69006	82.56108	-438.99347	1323.13574	-179.34300	-740.70490	1338.16077	21.54807	-516.75659	1211.57141	27.71994	-621.32098	1384.47754	-116.97780	-403.49994	985.68213	-218.28297	-846.42944	1006.32935	83.24075	-363.60599	807.64746	-117.58858	-781.01862	839.35352	222.73051	-460.02322	856.09607	-49.38336	-675.20007	865.27240	83.82873	-671.49432	931.50024	-171.09039	-376.94659	489.43704	82.30391	-720.42053	434.17584	26.82150	-479.80490	171.96396	21.56521	-763.54047	105.43045	-35.90264	
252	2.510	-460.87601	1504.73572	126.77738	-604.48303	1596.38818	-123.75244	-453.24820	1547.06445	-78.00729	-604.51086	1539.65625	90.59371	-435.66519	1322.63647	-172.79521	-735.98529	1337.74939	29.50709	-513.40747	1210.45789	33.65594	-617.69623	1384.24817	-109.56787	-401.85959	985.43726	-212.87723	-842.58002	1006.26385	93.02143	-360.53748	806.69952	-114.01904	-774.19464	839.76111	232.96040	-456.36395	855.36731	-43.64227	-670.65955	862.75732	82.87054	-669.59106	931.61469	-163.89256	-370.55655	490.12827	87.83566	-719.07385	433.84946	29.81302	-465.01648	167.45128	40.49879	-763.80231	101.53010	-45.04082	
253	2.520	-456.78033	1504.11743	134.51767	-600.62073	1595.23438	-115.72701	-449.16718	1546.32117	-71.42133	-599.80640	1538.73804	98.41886	-431.39832	1321.15308	-165.56468	-731.30322	1336.61157	38.29382	-508.84576	1208.85852	40.33170	-613.56610	1383.08228	-101.34159	-399.02914	984.07684	-207.03539	-838.47980	1005.96375	102.57439	-357.97668	805.15479	-109.16926	-768.52100	839.34924	241.81961	-453.52783	855.02026	-37.57705	-667.03717	862.33258	92.59486	-667.13519	930.99542	-156.94231	-364.57047	489.72675	92.16703	-716.71429	432.51816	33.88464	-450.28500	162.62729	59.08984	-763.47791	102.01820	-44.05033	
254	2.530	-452.35617	1502.93713	142.00655	-596.68903	1593.87744	-107.91071	-445.06583	1544.90967	-64.07867	-594.98285	1537.39429	106.09664	-427.77283	1320.41113	-158.64368	-726.78143	1335.69629	45.95687	-504.49954	1206.99438	47.90891	-609.40540	1382.17078	-93.84281	-396.68243	983.21710	-201.19832	-834.13989	1004.99097	112.21241	-355.02768	804.02557	-104.43615	-762.60071	839.70691	252.00804	-449.76755	853.83691	-30.97466	-662.55432	861.18036	97.99922	-664.39166	929.39093	-149.69463	-359.89246	488.27209	96.48306	-714.82416	432.14484	38.47400	-432.52869	158.55341	74.98157	-763.16730	102.49125	-43.10410	
255	2.540	-447.67926	1501.61353	149.56517	-592.44177	1592.85132	-100.01274	-440.93124	1544.49817	-56.47226	-590.60632	1536.02539	113.43062	-423.25900	1319.35168	-151.41949	-722.34613	1334.26794	54.06689	-500.46344	1205.86584	54.45416	-605.39984	1381.58716	-86.11817	-393.50943	981.97595	-195.56583	-829.56976	1004.02405	121.57230	-352.20682	802.19983	-99.16794	-756.38519	839.17297	261.51379	-446.00839	852.85742	-24.88828	-658.83606	861.33868	107.64368	-661.50812	929.15460	-142.08755	-354.99527	486.85391	99.99647	-713.36279	431.21185	41.20836	-414.37451	154.99643	91.06691	-762.93250	102.86658	-42.39568	
